<?xml version="1.0" encoding="utf-8"?>
<!-- Generator: Adobe Illustrator 23.0.3, SVG Export Plug-In . SVG Version: 6.00 Build 0)  -->
<svg version="1.1" id="Layer_1" xmlns="http://www.w3.org/2000/svg" xmlns:xlink="http://www.w3.org/1999/xlink" x="0px" y="0px"
	 viewBox="0 0 53.6 70.6" style="enable-background:new 0 0 53.6 70.6;" xml:space="preserve">
<style type="text/css">
	.st0{fill:#DBDBDB;}
	.st1{fill:#6D6D6D;}
	.st2{fill:#EDEDED;}
	.st3{fill:#888888;}
	.st4{fill:url(#SVGID_1_);}
	.st5{fill:#2F3133;}
	.st6{fill:#EAEAEA;}
</style>
<title>Asset 5</title>
<g>
	<g>
		<g id="_0">
			<g id="_11">
				<polygon class="st0" points="7.5,27.5 3.4,25.1 46.1,0.5 50.2,2.8 				"/>
				<g>
					<path class="st1" d="M5.1,70.4L1,68c-0.7-0.5-1.1-1.3-1-2.2l4.1,2.4C4,69,4.4,69.9,5.1,70.4z"/>
				</g>
				<g>
					<path class="st2" d="M50.2,2.8l-4.1-2.4c0.7-0.5,1.6-0.6,2.4-0.2l4.1,2.4C51.9,2.2,51.1,2.3,50.2,2.8z"/>
				</g>
				<polygon class="st3" points="4.1,68.2 0,65.9 0,31 4.1,33.4 				"/>
				<g>
					<path class="st2" d="M4.1,33.4L0,31c0.1-2.4,1.4-4.6,3.4-5.9l4.1,2.4C5.5,28.8,4.2,31,4.1,33.4z"/>
				</g>
				
					<linearGradient id="SVGID_1_" gradientUnits="userSpaceOnUse" x1="16.0173" y1="12.5562" x2="42.9488" y2="87.9696" gradientTransform="matrix(1 0 0 -1 0 84.9774)">
					<stop  offset="0" style="stop-color:#C4C4C4"/>
					<stop  offset="0.28" style="stop-color:#C6C6C6"/>
					<stop  offset="0.38" style="stop-color:#CDCDCD"/>
					<stop  offset="0.4" style="stop-color:#CFCFCF"/>
					<stop  offset="0.46" style="stop-color:#CBCBCB"/>
					<stop  offset="0.7" style="stop-color:#C1C1C1"/>
					<stop  offset="1" style="stop-color:#BEBEBE"/>
				</linearGradient>
				<path class="st4" d="M50.2,2.8c1.9-1.1,3.4-0.2,3.4,2v34.8c-0.1,2.4-1.4,4.6-3.4,5.9L7.5,70.1c-1.9,1.1-3.4,0.2-3.4-2V33.4
					c0.1-2.4,1.4-4.6,3.4-5.9L50.2,2.8z"/>
				<path class="st5" d="M49.1,5.8c1.7-1,3-0.2,3,1.7v31c-0.1,2.1-1.2,4.1-3,5.2L8.8,67.1c-1.7,1-3,0.2-3-1.7v-31
					c0.1-2.1,1.2-4.1,3-5.2L49.1,5.8z"/>
			</g>
		</g>
	</g>
	<g>
		<g>
			<path class="st6" d="M24.7,35.4V43L24,43.5v-6.4l-1,1.3l-0.3-0.7l1.5-2L24.7,35.4z"/>
			<path class="st6" d="M29,39.4v1l-3.3,2v-1l1.3-2.8c0.4-1,0.8-1.6,0.9-2.1c0.2-0.4,0.3-0.8,0.3-1.2c0-0.3-0.1-0.6-0.3-0.7
				c-0.2-0.1-0.4-0.1-0.7,0.1c-0.2,0.1-0.4,0.4-0.6,0.7c-0.2,0.3-0.3,0.6-0.3,1l-0.6,0c0.1-0.5,0.3-1,0.6-1.5c0.3-0.5,0.6-0.9,1-1.1
				c0.5-0.3,0.9-0.3,1.2-0.1c0.3,0.2,0.5,0.7,0.5,1.3c0,0.7-0.3,1.7-0.8,2.9l-1.5,3.2L29,39.4z"/>
			<path class="st6" d="M30.7,34.6c0,0.2,0,0.4-0.1,0.6c-0.1,0.2-0.2,0.4-0.4,0.4c-0.1,0.1-0.3,0.1-0.4,0c-0.1-0.1-0.1-0.2-0.1-0.4
				c0-0.2,0-0.4,0.1-0.6c0.1-0.2,0.2-0.3,0.4-0.4c0.1-0.1,0.3-0.1,0.4,0C30.6,34.2,30.7,34.4,30.7,34.6z M30.7,38.6
				c0,0.2,0,0.4-0.1,0.6c-0.1,0.2-0.2,0.4-0.4,0.4c-0.1,0.1-0.3,0.1-0.4,0c-0.1-0.1-0.1-0.2-0.1-0.4c0-0.2,0-0.4,0.1-0.6
				c0.1-0.2,0.2-0.4,0.4-0.4c0.1-0.1,0.3-0.1,0.4,0C30.6,38.3,30.7,38.4,30.7,38.6z"/>
			<path class="st6" d="M33.3,30.2v7.5l-0.7,0.4v-6.3l-1,1.2l-0.3-0.7l1.5-1.9L33.3,30.2z"/>
			<path class="st6" d="M37.6,32.7c0,0.7-0.2,1.4-0.5,2.1c-0.3,0.7-0.7,1.2-1.2,1.5c-0.4,0.2-0.7,0.3-1.1,0.1
				c-0.3-0.2-0.5-0.5-0.6-1.1l0.6-0.7c0.1,0.4,0.2,0.7,0.4,0.8c0.2,0.1,0.4,0.1,0.7,0c0.3-0.2,0.6-0.5,0.8-0.9
				c0.2-0.4,0.3-0.8,0.3-1.3c0-0.5-0.1-0.8-0.3-0.9c-0.2-0.2-0.4-0.2-0.8,0c-0.4,0.2-0.6,0.6-0.8,1.2l-0.7,0l0.3-4l2.6-1.6v1l-2,1.2
				l-0.2,2.3l0,0c0.2-0.5,0.5-0.8,0.9-1c0.4-0.3,0.8-0.3,1.1,0C37.5,31.5,37.6,32,37.6,32.7z"/>
		</g>
	</g>
</g>
</svg>
