<svg xmlns="http://www.w3.org/2000/svg" xmlns:xlink="http://www.w3.org/1999/xlink" viewBox="0 0 98.01 59.5"><defs><style>.cls-1{fill:none;}.cls-2{isolation:isolate;}.cls-3{fill:#363638;}.cls-4{fill:#4b4b50;}.cls-5{clip-path:url(#clip-path);}.cls-6{fill:url(#linear-gradient);}.cls-7{fill:#2b2b2d;}.cls-8{clip-path:url(#clip-path-2);}.cls-9{fill:url(#linear-gradient-2);}.cls-10,.cls-14{opacity:0.5;}.cls-11{fill:#96c1b4;}.cls-12{fill:#546761;}.cls-13{fill:#516e65;}.cls-14{fill:url(#linear-gradient-3);}.cls-15{fill:url(#linear-gradient-4);}.cls-16{fill:url(#linear-gradient-5);}.cls-17{fill:#212121;}.cls-18,.cls-19{fill:#d0d6d6;}.cls-18{opacity:0.1;}.cls-19{opacity:0.2;mix-blend-mode:screen;}</style><clipPath id="clip-path" transform="translate(0 0)"><path class="cls-1" d="M.29,28.07l1.27-.74C4.46,25.64,28.9,36.51,50,48.66l-1.27.74C27.63,37.25,3.19,26.38.29,28.07Z"/></clipPath><linearGradient id="linear-gradient" x1="0.29" y1="38.28" x2="49.96" y2="38.28" gradientUnits="userSpaceOnUse"><stop offset="0" stop-color="#48484d"/><stop offset="0.15" stop-color="#4d4d52"/><stop offset="0.33" stop-color="#5c5c60"/><stop offset="0.53" stop-color="#747478"/><stop offset="0.73" stop-color="#969699"/><stop offset="0.73" stop-color="#969699"/><stop offset="0.87" stop-color="#969699"/><stop offset="0.89" stop-color="#727276"/></linearGradient><clipPath id="clip-path-2" transform="translate(0 0)"><path class="cls-1" d="M47.3.91,48.58.17C51.48-1.51,75.92,9.35,97,21.51l-1.27.74C74.65,10.09,50.21-.77,47.3.91Z"/></clipPath><linearGradient id="linear-gradient-2" x1="47.3" y1="11.12" x2="96.98" y2="11.12" xlink:href="#linear-gradient"/><linearGradient id="linear-gradient-3" x1="98.78" y1="21.41" x2="49.24" y2="58.54" gradientUnits="userSpaceOnUse"><stop offset="0" stop-color="#f2fffd"/><stop offset="1" stop-color="#e0fffb"/></linearGradient><linearGradient id="linear-gradient-4" x1="90.62" y1="12.92" x2="49.32" y2="60.26" gradientUnits="userSpaceOnUse"><stop offset="0" stop-color="#969699"/><stop offset="1" stop-color="#7f7f83"/></linearGradient><linearGradient id="linear-gradient-5" x1="37.78" y1="50.43" x2="48.18" y2="50.43" xlink:href="#linear-gradient"/></defs><title>Asset 4</title><g class="cls-2"><g id="Layer_2" data-name="Layer 2"><g id="_0" data-name="0"><g id="_10" data-name="10"><path class="cls-3" d="M68.49,47.62l-.59-.34,1.33-9.92.61-.25S69.29,46.48,68.49,47.62Z" transform="translate(0 0)"/><g class="cls-2"><polygon class="cls-4" points="49.96 48.66 48.69 49.4 48.69 57.91 49.97 57.17 49.96 48.66"/><g class="cls-2"><g class="cls-5"><path class="cls-6" d="M1.56,27.33l-1.27.74c1.74-1,11,3.09,22.87,8.71C31.05,40.5,40.32,47.21,48.69,49.4L50,48.66C28.9,36.51,4.46,25.64,1.56,27.33Z" transform="translate(0 0)"/></g></g><path class="cls-7" d="M48.69,49.4C26.27,36.46,0,25,0,28.56a1.36,1.36,0,0,0,.25.65,2.5,2.5,0,0,0,.8.79,1.69,1.69,0,0,0,.28.12c2.19.77,11.12,2,24.16,9.49,2.9,1.68,7.22,8.84,7.44,9.22l15.76,9.08Z" transform="translate(0 0)"/></g><g class="cls-2"><polygon class="cls-4" points="96.98 21.51 95.71 22.25 95.71 30.75 96.98 30.01 96.98 21.51"/><g class="cls-2"><g class="cls-8"><path class="cls-9" d="M48.58.17,47.3.91c1.75-1,11,3.09,22.88,8.71,7.89,3.72,17.16,10.43,25.53,12.63L97,21.51C75.92,9.35,51.48-1.51,48.58.17Z" transform="translate(0 0)"/></g></g><path class="cls-7" d="M95.71,22.25C73.29,9.3,47-2.17,47,1.4a1.36,1.36,0,0,0,.25.65,2.5,2.5,0,0,0,.8.79,1.43,1.43,0,0,0,.28.13c2.19.77,11.12,2,24.16,9.49,2.9,1.67,7.21,8.83,7.44,9.21l15.76,9.08Z" transform="translate(0 0)"/></g><g class="cls-10"><g class="cls-2"><polygon class="cls-11" points="96.94 20.91 75.21 33.45 75.75 33.77 97.48 21.22 96.94 20.91"/><path class="cls-12" d="M77.16,42.29l-1.41-8.52-.54-.32L76.62,42a2.41,2.41,0,0,0,1.08,1.79l.54.31A2.41,2.41,0,0,1,77.16,42.29Z" transform="translate(0 0)"/></g><g class="cls-2"><polygon class="cls-11" points="69.34 36.84 47.61 49.39 48.15 49.7 69.88 37.16 69.34 36.84"/><path class="cls-13" d="M48.17,57l0-7.28-.54-.31,0,7.28a2.49,2.49,0,0,0,1,2.27l.54.32A2.5,2.5,0,0,1,48.17,57Z" transform="translate(0 0)"/></g></g><path class="cls-14" d="M75.75,33.77,97.48,21.22l0,7.29a7.89,7.89,0,0,1-3.13,5.86l-12.9,9.14c-.17.11-.33.22-.5.31a3.63,3.63,0,0,1-1.3.5,2.14,2.14,0,0,1-2.51-2ZM51.33,59.22l12.91-5.76c.16-.08.33-.16.49-.26a5.94,5.94,0,0,0,1.3-1,9.08,9.08,0,0,0,2.5-4.92l1.35-10.11L48.15,49.7l0,7.28C48.18,59.06,49.54,60,51.33,59.22Z" transform="translate(0 0)"/><g class="cls-2"><polygon class="cls-4" points="98.01 19.6 98.01 21.38 48.48 49.93 48.48 48.14 98.01 19.6"/><polygon class="cls-7" points="48.48 48.14 48.48 49.93 47.29 49.24 47.28 47.45 48.48 48.14"/><polygon class="cls-15" points="96.81 18.91 47.28 47.45 48.48 48.14 98.01 19.6 96.81 18.91"/></g><polygon class="cls-4" points="46.18 53.42 48.18 52.26 48.17 55.65 46.17 56.82 46.18 53.42"/><polygon class="cls-16" points="37.78 48.6 39.79 47.44 48.18 52.26 46.18 53.42 37.78 48.6"/><polygon class="cls-3" points="46.18 53.42 46.17 56.82 37.77 52 37.78 48.6 46.18 53.42"/><path class="cls-17" d="M47.17,53.58a1.89,1.89,0,0,0-.87,1.5c0,.55.4.77.88.49a1.92,1.92,0,0,0,.86-1.5C48,53.52,47.65,53.3,47.17,53.58Z" transform="translate(0 0)"/><path class="cls-18" d="M47.14,53.92a1.2,1.2,0,0,0-.56,1c0,.35.25.49.56.32a1.23,1.23,0,0,0,.56-1C47.69,53.88,47.44,53.74,47.14,53.92Z" transform="translate(0 0)"/><path class="cls-18" d="M47.16,54.21a.67.67,0,0,0-.3.52c0,.19.14.27.31.17a.67.67,0,0,0,.3-.52C47.47,54.19,47.33,54.11,47.16,54.21Z" transform="translate(0 0)"/><path class="cls-19" d="M47.12,54.33a.22.22,0,0,0-.12.19c0,.07,0,.1.12.06a.24.24,0,0,0,.11-.19C47.23,54.32,47.18,54.29,47.12,54.33Z" transform="translate(0 0)"/><path class="cls-4" d="M68.49,47.62a1.78,1.78,0,0,0,.86-.57c.27-.47,1.11-6.22,1.27-7.37.24-1.65,2.26-3.43,3.73-2.72a1.3,1.3,0,0,1,.7.71c.46,1,.63,4,1,5a1.3,1.3,0,0,0,.47.26c.28.09.71-.26.71-.26s-.6-3.6-1.41-8.53c-.09-.57-4.73,1.59-6.07,3.09C69.76,37.2,69.35,41.13,68.49,47.62Z" transform="translate(0 0)"/></g></g></g></g></svg>