<svg xmlns="http://www.w3.org/2000/svg" xmlns:xlink="http://www.w3.org/1999/xlink" viewBox="0 0 62.58 65.06"><defs><style>.cls-1{fill:#ededed;}.cls-2{fill:#757575;}.cls-3{fill:#dbdbdb;}.cls-4{fill:#a9a9a9;}.cls-5{fill:url(#linear-gradient);}.cls-6{fill:#4c4646;}.cls-7{fill:#262424;}.cls-8{fill:#322e2e;}.cls-9{isolation:isolate;}.cls-10{fill:#888;}.cls-11{fill:url(#linear-gradient-2);}.cls-12{fill:url(#linear-gradient-3);}.cls-13{fill:#2f3133;}.cls-14{fill:#f1f1f1;}.cls-15{fill:#a0a0a0;}.cls-16{fill:#eaeaea;}.cls-17{fill:#6d6d6d;}</style><linearGradient id="linear-gradient" x1="7.46" y1="12.16" x2="37.31" y2="63.86" gradientUnits="userSpaceOnUse"><stop offset="0" stop-color="#312e2e"/><stop offset="1" stop-color="#4c4646"/></linearGradient><linearGradient id="linear-gradient-2" x1="11.54" y1="49.56" x2="56.81" y2="49.56" gradientUnits="userSpaceOnUse"><stop offset="0" stop-color="#666262"/><stop offset="1" stop-color="#312e2e"/></linearGradient><linearGradient id="linear-gradient-3" x1="37.22" y1="20.46" x2="57.6" y2="55.75" xlink:href="#linear-gradient-2"/></defs><title>Asset 3</title><g id="Layer_2" data-name="Layer 2"><g id="_0" data-name="0"><g id="_7" data-name="7"><path class="cls-1" d="M35.56,51.12l-3.46-2a.81.81,0,0,0,.37-.64l3.45,2a.8.8,0,0,1-.36.63Z"/><polygon class="cls-2" points="35.92 50.49 32.47 48.48 32.45 42.44 36.06 43.84 35.92 50.49"/><path class="cls-3" d="M32.1,49.12l-14,8.1a.25.25,0,0,1-.26,0l3.31,2.26a1,1,0,0,0,.48-.07l14-8.32Z"/><path class="cls-4" d="M36.48,44.11a.65.65,0,0,0-.22-.56,5.61,5.61,0,0,1-.49.66h0a.25.25,0,0,1,.11.24v6a.8.8,0,0,1-.36.63l-14,8.11a.26.26,0,0,1-.18,0c0,.13-.23.22-.25.35s.13.28.11.39a.9.9,0,0,0,.32-.12l14-8.1a2.08,2.08,0,0,0,.94-1.63Z"/><path class="cls-5" d="M49.24,56.36a2.06,2.06,0,0,0-1-1.51c-2.17-1-7.7-4-10.18-5.46C26.78,42.88,15.42,29.9,15.46,15.56c0-5.65,1.8-9,4.63-10.7L6.46,12.78c-2.84,1.65-4.61,5-4.63,10.7,0,14.34,11.31,27.33,22.58,33.83,2.49,1.44,8,4.51,10.19,5.46a2.06,2.06,0,0,1,1,1.51.7.7,0,0,1-.26.72L49,57.07A.68.68,0,0,0,49.24,56.36Z"/><path class="cls-6" d="M18.89,2.56,5.25,10.48c2.29-1.33,5.26-1.68,8.78-1L27.66,1.55C24.15.87,21.18,1.23,18.89,2.56Z"/><path class="cls-7" d="M35.61,64.28a2.06,2.06,0,0,0-1-1.51c-2.17-1-7.7-4-10.19-5.46C13.14,50.81,1.79,37.82,1.83,23.48c0-9.74,5.29-12.79,12.19-11.72V9.47c-8.65-1.66-14,2.9-14,13C0,36.1,9.77,51,24.41,59.42,26.93,60.87,32.56,64,34.81,65,35.31,65.21,35.67,64.89,35.61,64.28Z"/><polygon class="cls-8" points="14.03 9.47 14.02 11.76 27.65 3.84 27.66 1.55 14.03 9.47"/><g class="cls-9"><g class="cls-9"><g class="cls-9"><path class="cls-4" d="M13.19,12V15.3A1.59,1.59,0,0,1,12.23,14V10.63A1.59,1.59,0,0,0,13.19,12Z"/></g></g><g class="cls-9"><path class="cls-4" d="M50.21,11.36v3.33A1.6,1.6,0,0,1,49.26,16V12.68a1.6,1.6,0,0,0,.94-1.32Z"/></g><polygon class="cls-10" points="49.27 12.68 49.26 16.01 34.17 24.78 34.18 21.45 49.27 12.68"/><polygon class="cls-10" points="29.61 21.45 29.6 24.78 13.18 15.3 13.19 11.97 29.61 21.45"/><g class="cls-9"><path class="cls-4" d="M34.18,21.45v3.33a5,5,0,0,1-4.57,0V21.45a5,5,0,0,0,4.57,0Z"/></g></g><path class="cls-3" d="M49.26,10c1.27.73,1.27,1.92,0,2.65L34.18,21.45a5,5,0,0,1-4.57,0L13.19,12c-1.27-.73-1.27-1.92,0-2.65L28.26.55a5.06,5.06,0,0,1,4.58,0Z"/><path class="cls-11" d="M11.54,45.16l13.64-7.92a.65.65,0,0,1,.65.06,1.54,1.54,0,0,1,.38.32c.83.93,1.67,1.79,2.49,2.57a47.44,47.44,0,0,0,9.19,7c4.55,2.62,8,4.47,9.69,5.26q6,2.73,9.23.86L43.18,61.19C41,62.45,38,62.15,34,60.33c-1.73-.79-5.14-2.64-9.69-5.25a48.32,48.32,0,0,1-9.2-7c-.81-.78-1.65-1.65-2.48-2.58a1.83,1.83,0,0,0-.39-.32A.65.65,0,0,0,11.54,45.16Z"/><path class="cls-12" d="M58.05,55.44,44.41,63.36c3-1.72,4.52-5.92,4.53-12.51C49,40.8,43.67,30.09,35,21.77l13.63-7.92c8.63,8.32,13.94,19,13.91,29.08C62.56,49.52,61,53.71,58.05,55.44Z"/><path class="cls-7" d="M35,21.77v2.3c6.89,6.88,12.11,16,12.08,25.73,0,11.11-4.33,14.56-13.16,10.53-1.73-.79-5.14-2.64-9.69-5.25a48.32,48.32,0,0,1-9.2-7c-.81-.78-1.65-1.65-2.48-2.58a1.83,1.83,0,0,0-.39-.32c-.35-.2-.68-.16-.83.14A1.67,1.67,0,0,0,11.81,47c.89,1,1.79,1.92,2.67,2.77a50.89,50.89,0,0,0,9.88,7.46c3.19,1.83,7.48,4.24,9.78,5.29,9.65,4.41,14.77.37,14.8-11.68C49,40.8,43.67,30.09,35,21.77Z"/><path class="cls-13" d="M32.92,1.44l15,8.65L29.66,20.63,14.67,12Z"/><g class="cls-9"><g class="cls-9"><g class="cls-9"><path class="cls-14" d="M17.24,16.44l1.25-.72a2.33,2.33,0,0,1,.36.56L17.6,17a2.12,2.12,0,0,0-.36-.57Z"/><path class="cls-3" d="M18.49,15.72l-1.25.72a1.69,1.69,0,0,0-.41-.35.68.68,0,0,0-.68-.06l1.25-.73a.67.67,0,0,1,.67.07A2,2,0,0,1,18.49,15.72Zm.36.56L17.6,17a1.83,1.83,0,0,1,.16.71.64.64,0,0,1-.27.6l1.25-.72A.66.66,0,0,0,19,17,1.87,1.87,0,0,0,18.85,16.28Z"/></g></g><path class="cls-15" d="M16.83,16.09a2.08,2.08,0,0,1,.93,1.63c0,.59-.42.84-.94.54a2.08,2.08,0,0,1-.94-1.63C15.88,16,16.31,15.79,16.83,16.09Z"/></g><g class="cls-9"><g class="cls-9"><g class="cls-9"><path class="cls-14" d="M22.47,19.49l1.24-.73a2.12,2.12,0,0,1,.36.57l-1.24.72a2.33,2.33,0,0,0-.36-.56Z"/><path class="cls-3" d="M23.71,18.76l-1.24.73a2,2,0,0,0-.42-.35.67.67,0,0,0-.67-.07l1.25-.72a.64.64,0,0,1,.67.07A1.46,1.46,0,0,1,23.71,18.76Zm.36.57-1.24.72a1.87,1.87,0,0,1,.16.71.67.67,0,0,1-.28.61L24,20.65a.69.69,0,0,0,.28-.61A1.68,1.68,0,0,0,24.07,19.33Z"/></g></g><path class="cls-15" d="M22.05,19.14A2.06,2.06,0,0,1,23,20.76c0,.6-.42.85-.94.54a2,2,0,0,1-.94-1.63C21.11,19.08,21.53,18.84,22.05,19.14Z"/></g><polygon class="cls-16" points="22.77 11.12 22.56 11.24 22.2 12.33 22.62 12.38 22.89 11.56 25.76 13.22 24.82 13.76 25.12 13.93 27.32 12.66 27.02 12.49 26.08 13.03 22.77 11.12"/><path class="cls-16" d="M25.52,9.49c-.77.45-.7.89,0,1.31l.11.06.33-.19c-.68-.39-.7-.7-.17-1h0a1.52,1.52,0,0,1,1.5,0l0,0a.65.65,0,0,1,.37.64l.1,1.85.2.12L30.29,11l-.3-.17-1.4.8-.34.21-.08-1.58a.81.81,0,0,0-.51-.78l-.06,0A2.08,2.08,0,0,0,25.52,9.49Z"/><polygon class="cls-16" points="31.07 10.5 31.48 10.26 31.07 10.02 30.65 10.26 31.07 10.5"/><polygon class="cls-16" points="29.48 9.58 29.89 9.34 29.48 9.1 29.07 9.34 29.48 9.58"/><polygon class="cls-16" points="29.99 6.96 29.77 7.08 29.41 8.17 29.83 8.22 30.1 7.4 32.97 9.05 32.03 9.6 32.33 9.77 34.53 8.5 34.23 8.33 33.3 8.87 29.99 6.96"/><path class="cls-16" d="M34.11,6.11a1,1,0,0,0-.52.61l-1.22-.78,1.82-1-.3-.18L31.76,6l1.92,1.21L34,7.06c-.18-.27,0-.56.33-.75l0,0a1.66,1.66,0,0,1,1.63,0l.08,0c.58.34.45.7,0,.94l0,0a1.63,1.63,0,0,1-1.7-.07l-.33.19.05,0a2.21,2.21,0,0,0,2.3,0c.66-.38.75-.89,0-1.32l-.06,0A2.32,2.32,0,0,0,34.11,6.11Z"/><path class="cls-7" d="M38.43,55.81A2.87,2.87,0,0,1,37,55.47.76.76,0,0,1,37,54a3.16,3.16,0,0,1,2.85,0,.76.76,0,0,1,0,1.45A2.88,2.88,0,0,1,38.43,55.81Zm-6.35-3.34a2.84,2.84,0,0,1-1.42-.34.75.75,0,0,1,0-1.45,3.14,3.14,0,0,1,2.84,0,.76.76,0,0,1,0,1.45A2.87,2.87,0,0,1,32.08,52.47Zm-6.42-3.85a2.91,2.91,0,0,1-1.43-.34.76.76,0,0,1,0-1.45,2.91,2.91,0,0,1,1.43-.34,2.87,2.87,0,0,1,1.42.34.76.76,0,0,1,0,1.45A2.87,2.87,0,0,1,25.66,48.62Z"/><g class="cls-9"><g class="cls-9"><path class="cls-1" d="M35.54,43.57l-3.46-2a.66.66,0,0,1,.67-.06l3.46,2a.66.66,0,0,0-.67.06Z"/></g></g><g class="cls-9"><path class="cls-17" d="M20.85,60l-3.46-2a.66.66,0,0,1-.27-.6l3.45,2a.67.67,0,0,0,.28.61Z"/></g><polygon class="cls-10" points="20.57 59.35 17.12 57.35 17.1 51.3 20.56 53.31 20.57 59.35"/><polygon class="cls-3" points="21.5 51.68 18.04 49.67 32.08 41.56 35.54 43.57 21.5 51.68"/><path class="cls-4" d="M21.15,59l0-6.05a.84.84,0,0,1,.37-.63l14-8.1a.22.22,0,0,1,.23,0c.1-.12.32-.08.41-.2s0-.36.08-.46l0,0a.62.62,0,0,0-.7,0l-14,8.11a2,2,0,0,0-.94,1.63v6c0,.48.27.72.63.66a6.42,6.42,0,0,1,.14-.74A.22.22,0,0,1,21.15,59Z"/><g class="cls-9"><path class="cls-1" d="M20.56,53.31l-3.46-2A2.08,2.08,0,0,1,18,49.67l3.46,2a2,2,0,0,0-.94,1.63Z"/></g></g></g></g></svg>